<?xml version="1.0" encoding="UTF-8"?>
<!DOCTYPE svg PUBLIC "-//W3C//DTD SVG 1.1//EN" "http://www.w3.org/Graphics/SVG/1.1/DTD/svg11.dtd">
<svg xmlns="http://www.w3.org/2000/svg" version="1.1" width="494px" height="217px" style="shape-rendering:geometricPrecision; text-rendering:geometricPrecision; image-rendering:optimizeQuality; fill-rule:evenodd; clip-rule:evenodd" xmlns:xlink="http://www.w3.org/1999/xlink">
<g><path style="opacity:1" fill="#ff4e35" d="M 59.5,-0.5 C 60.5,-0.5 61.5,-0.5 62.5,-0.5C 63.9424,11.5179 60.2758,21.5179 51.5,29.5C 50.5233,26.7131 50.19,23.7131 50.5,20.5C 51.5944,12.6485 54.5944,5.64847 59.5,-0.5 Z"/></g>
<g><path style="opacity:0.886" fill="#ff897f" d="M 50.5,20.5 C 50.19,23.7131 50.5233,26.7131 51.5,29.5C 50.7347,32.0961 50.4013,34.7628 50.5,37.5C 49.8333,35.8333 49.1667,34.1667 48.5,32.5C 49.1086,28.3953 49.7752,24.3953 50.5,20.5 Z"/></g>
<g><path style="opacity:1" fill="#ff432d" d="M 48.5,32.5 C 49.1667,34.1667 49.8333,35.8333 50.5,37.5C 51.2653,40.0961 51.5987,42.7628 51.5,45.5C 51.2594,47.8984 51.9261,49.8984 53.5,51.5C 57.1964,65.3843 57.3631,79.3843 54,93.5C 53.162,97.8598 51.662,101.86 49.5,105.5C 48.0755,107.031 47.4088,106.698 47.5,104.5C 49.2319,96.9193 49.7319,89.2526 49,81.5C 46.5889,70.36 44.4222,59.1934 42.5,48C 41.891,41.7333 43.891,36.5666 48.5,32.5 Z"/></g>
<g><path style="opacity:0.404" fill="#ffc0bd" d="M 24.5,49.5 C 23.5084,49.3284 22.8417,49.6618 22.5,50.5C 21.1154,49.4264 19.9487,48.0931 19,46.5C 18.3333,45.8333 18.3333,45.1667 19,44.5C 21.3284,45.6635 23.1618,47.3302 24.5,49.5 Z"/></g>
<g><path style="opacity:0.878" fill="#ff958a" d="M 51.5,45.5 C 52.7384,47.2143 53.405,49.2143 53.5,51.5C 51.9261,49.8984 51.2594,47.8984 51.5,45.5 Z"/></g>
<g><path style="opacity:1" fill="#ff7c6b" d="M 24.5,49.5 C 26.0627,50.9448 27.396,52.6115 28.5,54.5C 27.1667,54.5 26.5,55.1667 26.5,56.5C 24.8079,54.7952 23.4746,52.7952 22.5,50.5C 22.8417,49.6618 23.5084,49.3284 24.5,49.5 Z"/></g>
<g><path style="opacity:1" fill="#ff2e1a" d="M 28.5,54.5 C 29.5,54.8333 30.1667,55.5 30.5,56.5C 30.7376,58.4044 31.7376,59.7377 33.5,60.5C 33.427,62.0269 34.0937,63.0269 35.5,63.5C 35.427,65.0269 36.0937,66.0269 37.5,66.5C 41.0609,71.6947 42.7276,77.528 42.5,84C 42.5484,89.307 41.7151,94.4737 40,99.5C 37.2625,106.379 34.9292,113.379 33,120.5C 31.7324,129.991 33.2324,138.991 37.5,147.5C 37.427,149.027 38.0937,150.027 39.5,150.5C 40.4013,151.29 41.0679,152.29 41.5,153.5C 42.1642,155.487 43.3308,157.154 45,158.5C 44.9031,156.541 44.0698,154.875 42.5,153.5C 39.9668,147.896 39.3001,142.229 40.5,136.5C 41.9238,134.485 42.5905,132.152 42.5,129.5C 43.3045,126.558 44.6378,123.891 46.5,121.5C 47.9063,121.027 48.573,120.027 48.5,118.5C 50.2624,117.738 51.2624,116.404 51.5,114.5C 53.2624,113.738 54.2624,112.404 54.5,110.5C 58.136,104.222 60.9693,97.5554 63,90.5C 63.6323,81.8144 63.4656,73.1477 62.5,64.5C 62.3668,61.075 63.0335,60.7417 64.5,63.5C 65.3414,65.3792 65.6747,67.3792 65.5,69.5C 65.5651,72.4282 66.2318,75.0948 67.5,77.5C 70.1915,89.1762 70.0249,100.843 67,112.5C 64.7286,120.648 62.0619,128.648 59,136.5C 55.9828,143.905 55.9828,151.238 59,158.5C 62.5136,161.5 66.3469,163.833 70.5,165.5C 71.5137,166.674 72.847,167.34 74.5,167.5C 75.6946,167.866 76.3613,168.699 76.5,170C 75.3181,171.735 73.6515,172.735 71.5,173C 60.0086,175.449 48.5086,177.616 37,179.5C 36.0053,178.934 35.172,178.267 34.5,177.5C 34.0269,176.094 33.0269,175.427 31.5,175.5C 30.7377,173.738 29.4044,172.738 27.5,172.5C 26.1103,171.101 25.1103,169.434 24.5,167.5C 23.9473,165.448 22.9473,165.115 21.5,166.5C 14.2759,169.149 6.94255,169.149 -0.5,166.5C -0.5,162.833 -0.5,159.167 -0.5,155.5C 3.84859,141.466 9.84859,128.133 17.5,115.5C 18.9063,115.027 19.573,114.027 19.5,112.5C 19.7497,110.326 20.7497,108.659 22.5,107.5C 23.9063,107.027 24.573,106.027 24.5,104.5C 24.3284,103.508 24.6618,102.842 25.5,102.5C 26.9063,102.027 27.573,101.027 27.5,99.5C 28.3257,96.5152 29.659,93.8485 31.5,91.5C 33.0739,89.8984 33.7406,87.8984 33.5,85.5C 33.6657,81.1539 33.499,76.8206 33,72.5C 31.1114,66.9885 28.9447,61.6552 26.5,56.5C 26.5,55.1667 27.1667,54.5 28.5,54.5 Z"/></g>
<g><path style="opacity:0.396" fill="#ffb2ae" d="M 64.5,63.5 C 63.0335,60.7417 62.3668,61.075 62.5,64.5C 61.0197,59.603 59.853,54.603 59,49.5C 61.7432,53.8035 63.5766,58.4701 64.5,63.5 Z"/></g>
<g><path style="opacity:0.808" fill="#ff9f95" d="M 30.5,56.5 C 32.2624,57.2623 33.2624,58.5956 33.5,60.5C 31.7376,59.7377 30.7376,58.4044 30.5,56.5 Z"/></g>
<g><path style="opacity:0.455" fill="#ffa09a" d="M 33.5,60.5 C 34.9063,60.9731 35.573,61.9731 35.5,63.5C 34.0937,63.0269 33.427,62.0269 33.5,60.5 Z"/></g>
<g><path style="opacity:0.487" fill="#919191" d="M 330.5,68.5 C 330.5,67.1667 330.5,65.8333 330.5,64.5C 325.073,64.2175 319.74,64.5509 314.5,65.5C 317.087,64.1836 320.087,63.517 323.5,63.5C 326.5,63.8333 329.5,64.1667 332.5,64.5C 332.006,66.0255 331.339,67.3588 330.5,68.5 Z"/></g>
<g><path style="opacity:0.686" fill="#787878" d="M 362.5,64.5 C 367.348,63.1863 372.348,63.1863 377.5,64.5C 377.006,66.0255 376.339,67.3588 375.5,68.5C 375.5,67.1667 375.5,65.8333 375.5,64.5C 371.167,64.5 366.833,64.5 362.5,64.5 Z"/></g>
<g><path style="opacity:1" fill="#121212" d="M 330.5,68.5 C 324.265,96.672 317.265,124.672 309.5,152.5C 295.997,158.168 282.33,158.668 268.5,154C 258.818,146.455 256.151,136.955 260.5,125.5C 261.924,123.485 262.59,121.152 262.5,118.5C 262.707,115.759 263.707,113.426 265.5,111.5C 266.906,111.027 267.573,110.027 267.5,108.5C 268.906,108.027 269.573,107.027 269.5,105.5C 273.248,100.126 278.248,96.4593 284.5,94.5C 287.152,94.5905 289.485,93.9238 291.5,92.5C 297.212,92.313 302.879,92.6463 308.5,93.5C 309.583,89.9155 310.249,86.2488 310.5,82.5C 310.5,82.1667 310.5,81.8333 310.5,81.5C 311.924,79.4855 312.59,77.1522 312.5,74.5C 312.7,71.3704 313.366,68.3704 314.5,65.5C 319.74,64.5509 325.073,64.2175 330.5,64.5C 330.5,65.8333 330.5,67.1667 330.5,68.5 Z M 301.5,104.5 C 302.806,105.467 303.473,106.801 303.5,108.5C 302.366,111.37 301.7,114.37 301.5,117.5C 300.232,119.905 299.565,122.572 299.5,125.5C 298.232,127.905 297.565,130.572 297.5,133.5C 296.232,135.905 295.565,138.572 295.5,141.5C 291.813,143.343 287.813,144.01 283.5,143.5C 282.035,142.263 280.368,141.263 278.5,140.5C 278.029,138.421 277.363,136.421 276.5,134.5C 276.724,130.821 277.058,127.154 277.5,123.5C 279.815,114.348 285.482,108.181 294.5,105C 296.81,104.503 299.143,104.337 301.5,104.5 Z"/></g>
<g><path style="opacity:1" fill="#111111" d="M 362.5,64.5 C 366.833,64.5 371.167,64.5 375.5,64.5C 375.5,65.8333 375.5,67.1667 375.5,68.5C 375.5,68.8333 375.5,69.1667 375.5,69.5C 374.076,71.5145 373.41,73.8478 373.5,76.5C 363.63,76.247 357.963,80.9137 356.5,90.5C 355.957,90.56 355.624,90.8933 355.5,91.5C 359.445,92.4909 363.445,92.8242 367.5,92.5C 367.5,93.8333 367.5,95.1667 367.5,96.5C 367.221,99.1178 366.554,101.618 365.5,104C 361.247,104.2 357.08,104.7 353,105.5C 350.495,115.518 347.995,125.518 345.5,135.5C 343.926,137.102 343.259,139.102 343.5,141.5C 343.102,145.761 342.102,149.761 340.5,153.5C 335.219,154.782 329.886,154.782 324.5,153.5C 325.933,150.667 326.6,147.667 326.5,144.5C 327.768,142.095 328.435,139.428 328.5,136.5C 328.898,132.239 329.898,128.239 331.5,124.5C 333.04,122.162 333.706,119.495 333.5,116.5C 333.5,116.167 333.5,115.833 333.5,115.5C 335.163,113.562 335.829,111.228 335.5,108.5C 335.5,107.167 335.5,105.833 335.5,104.5C 333.5,104.5 331.5,104.5 329.5,104.5C 329.993,102.194 330.326,99.861 330.5,97.5C 330.261,95.5328 330.594,93.6995 331.5,92C 334.146,91.5026 336.813,91.3359 339.5,91.5C 340.263,86.4098 341.93,81.7432 344.5,77.5C 345.906,77.0269 346.573,76.0269 346.5,74.5C 350.2,68.6455 355.533,65.3121 362.5,64.5 Z"/></g>
<g><path style="opacity:0.325" fill="#ffaea8" d="M 35.5,63.5 C 36.9063,63.9731 37.573,64.9731 37.5,66.5C 36.0937,66.0269 35.427,65.0269 35.5,63.5 Z"/></g>
<g><path style="opacity:0.733" fill="#a5a5a5" d="M 201.5,65.5 C 198.833,65.8333 196.167,66.1667 193.5,66.5C 196.04,64.5873 198.707,64.254 201.5,65.5 Z"/></g>
<g><path style="opacity:1" fill="#171717" d="M 201.5,65.5 C 203.404,65.7376 204.738,66.7376 205.5,68.5C 205.5,71.1667 205.5,73.8333 205.5,76.5C 204.094,76.9731 203.427,77.9731 203.5,79.5C 200.033,82.9951 196.033,83.9951 191.5,82.5C 191.027,81.0937 190.027,80.427 188.5,80.5C 186.561,78.0635 186.227,75.3968 187.5,72.5C 189.262,71.7377 190.262,70.4044 190.5,68.5C 192.027,68.573 193.027,67.9063 193.5,66.5C 196.167,66.1667 198.833,65.8333 201.5,65.5 Z"/></g>
<g><path style="opacity:0.945" fill="#747474" d="M 397.5,66.5 C 394.482,66.7038 391.482,67.0371 388.5,67.5C 389.946,66.0598 391.779,65.3932 394,65.5C 395.385,65.5143 396.551,65.8476 397.5,66.5 Z"/></g>
<g><path style="opacity:0.999" fill="#131313" d="M 397.5,66.5 C 399.027,66.427 400.027,67.0937 400.5,68.5C 401.219,70.7638 401.552,73.0971 401.5,75.5C 400.833,79.5 398.5,81.8333 394.5,82.5C 390.556,82.8866 386.889,82.22 383.5,80.5C 382.366,78.0336 382.199,75.367 383,72.5C 383.383,71.944 383.883,71.6107 384.5,71.5C 386.167,70.5 387.5,69.1667 388.5,67.5C 391.482,67.0371 394.482,66.7038 397.5,66.5 Z"/></g>
<g><path style="opacity:0.678" fill="#979797" d="M 193.5,66.5 C 193.027,67.9063 192.027,68.573 190.5,68.5C 190.973,67.0937 191.973,66.427 193.5,66.5 Z"/></g>
<g><path style="opacity:0.604" fill="#939393" d="M 388.5,67.5 C 387.5,69.1667 386.167,70.5 384.5,71.5C 384.833,69.1667 386.167,67.8333 388.5,67.5 Z"/></g>
<g><path style="opacity:0.737" fill="#9a9a9a" d="M 190.5,68.5 C 190.262,70.4044 189.262,71.7377 187.5,72.5C 187.738,70.5956 188.738,69.2623 190.5,68.5 Z"/></g>
<g><path style="opacity:0.839" fill="#818181" d="M 205.5,68.5 C 207.972,71.1191 207.972,73.7857 205.5,76.5C 205.5,73.8333 205.5,71.1667 205.5,68.5 Z"/></g>
<g><path style="opacity:0.008" fill="#c2c2c2" d="M 375.5,69.5 C 375.59,72.1522 374.924,74.4855 373.5,76.5C 373.41,73.8478 374.076,71.5145 375.5,69.5 Z"/></g>
<g><path style="opacity:0.271" fill="#c8c8c8" d="M 400.5,68.5 C 401.993,69.3121 402.66,70.6455 402.5,72.5C 402.48,73.7261 402.147,74.7261 401.5,75.5C 401.552,73.0971 401.219,70.7638 400.5,68.5 Z"/></g>
<g><path style="opacity:0.62" fill="#ff9088" d="M 65.5,69.5 C 67.0395,71.8383 67.7062,74.5049 67.5,77.5C 66.2318,75.0948 65.5651,72.4282 65.5,69.5 Z"/></g>
<g><path style="opacity:0.459" fill="#949494" d="M 346.5,74.5 C 346.573,76.0269 345.906,77.0269 344.5,77.5C 344.427,75.9731 345.094,74.9731 346.5,74.5 Z"/></g>
<g><path style="opacity:0.004" fill="#cfcfcf" d="M 205.5,76.5 C 205.573,78.0269 204.906,79.0269 203.5,79.5C 203.427,77.9731 204.094,76.9731 205.5,76.5 Z"/></g>
<g><path style="opacity:0.506" fill="#9a9a9a" d="M 312.5,74.5 C 312.59,77.1522 311.924,79.4855 310.5,81.5C 310.41,78.8478 311.076,76.5145 312.5,74.5 Z"/></g>
<g><path style="opacity:0.38" fill="#a4a4a4" d="M 188.5,80.5 C 190.027,80.427 191.027,81.0937 191.5,82.5C 189.973,82.573 188.973,81.9063 188.5,80.5 Z"/></g>
<g><path style="opacity:0.624" fill="#848484" d="M 383.5,80.5 C 386.889,82.22 390.556,82.8866 394.5,82.5C 391.696,83.6378 388.696,83.8045 385.5,83C 384.619,82.2917 383.953,81.4584 383.5,80.5 Z"/></g>
<g><path style="opacity:0.792" fill="#ff9f97" d="M 33.5,85.5 C 33.7406,87.8984 33.0739,89.8984 31.5,91.5C 31.595,89.2143 32.2616,87.2143 33.5,85.5 Z"/></g>
<g><path style="opacity:1" fill="#151515" d="M 128.5,95.5 C 129.053,97.5518 130.053,97.8852 131.5,96.5C 132.514,95.3263 133.847,94.6596 135.5,94.5C 139.427,94.0743 143.093,93.0743 146.5,91.5C 153.342,89.7976 160.009,90.6309 166.5,94C 170.244,97.3241 171.911,101.491 171.5,106.5C 168.46,122.996 164.626,139.33 160,155.5C 154.584,156.639 149.084,156.806 143.5,156C 143.043,155.586 142.709,155.086 142.5,154.5C 143.365,151.338 144.365,148.338 145.5,145.5C 147.04,143.162 147.706,140.495 147.5,137.5C 148.768,135.095 149.435,132.428 149.5,129.5C 149.565,126.572 150.232,123.905 151.5,121.5C 152.924,119.485 153.59,117.152 153.5,114.5C 153.599,111.763 153.265,109.096 152.5,106.5C 152.027,105.094 151.027,104.427 149.5,104.5C 144.92,104.113 140.586,104.947 136.5,107C 134.867,111.401 133.533,115.901 132.5,120.5C 130.926,122.102 130.259,124.102 130.5,126.5C 128.653,135.89 126.486,145.223 124,154.5C 123.617,155.056 123.117,155.389 122.5,155.5C 117.5,155.5 112.5,155.5 107.5,155.5C 107.5,154.167 107.5,152.833 107.5,151.5C 107.232,149.901 107.566,148.568 108.5,147.5C 109.924,145.485 110.59,143.152 110.5,140.5C 111.547,133.248 113.213,126.248 115.5,119.5C 116.924,117.485 117.59,115.152 117.5,112.5C 117.456,108.91 115.789,106.41 112.5,105C 108.129,104.371 103.796,104.537 99.5,105.5C 98.971,109.949 97.971,114.282 96.5,118.5C 94.9261,120.102 94.2594,122.102 94.5,124.5C 94.5,124.833 94.5,125.167 94.5,125.5C 93.0762,127.515 92.4095,129.848 92.5,132.5C 91.2014,140.528 89.2014,148.361 86.5,156C 81.1667,156.667 75.8333,156.667 70.5,156C 69.4019,155.23 69.4019,154.397 70.5,153.5C 71.9238,151.485 72.5905,149.152 72.5,146.5C 73.7682,144.095 74.4349,141.428 74.5,138.5C 74.5651,135.572 75.2318,132.905 76.5,130.5C 78.2809,126.8 79.2809,122.8 79.5,118.5C 80.7422,110.527 82.7422,102.86 85.5,95.5C 88.1522,95.5905 90.4855,94.9238 92.5,93.5C 102.237,90.307 112.237,89.807 122.5,92C 124.727,92.941 126.727,94.1077 128.5,95.5 Z"/></g>
<g><path style="opacity:0.047" fill="#eaeaea" d="M 183.5,92.5 C 188.975,91.5111 194.642,91.1778 200.5,91.5C 200.784,93.4147 200.451,95.0813 199.5,96.5C 199.5,95.1667 199.5,93.8333 199.5,92.5C 194.167,92.5 188.833,92.5 183.5,92.5 Z"/></g>
<g><path style="opacity:1" fill="#141414" d="M 257.5,100.5 C 257.5,104.833 257.5,109.167 257.5,113.5C 254.632,127.639 251.132,141.639 247,155.5C 241.584,156.639 236.084,156.806 230.5,156C 230.167,155.667 229.833,155.333 229.5,155C 230.244,153.185 230.911,151.352 231.5,149.5C 232.924,147.485 233.59,145.152 233.5,142.5C 234.768,140.095 235.435,137.428 235.5,134.5C 235.898,130.239 236.898,126.239 238.5,122.5C 240.04,120.162 240.706,117.495 240.5,114.5C 241.304,107.469 238.137,104.136 231,104.5C 228.152,104.798 225.319,105.131 222.5,105.5C 219.1,121.103 215.1,136.437 210.5,151.5C 209.596,152.209 209.263,153.209 209.5,154.5C 204.5,154.5 199.5,154.5 194.5,154.5C 194.5,152.833 194.5,151.167 194.5,149.5C 194.232,147.901 194.566,146.568 195.5,145.5C 197.04,143.162 197.706,140.495 197.5,137.5C 199.04,135.162 199.706,132.495 199.5,129.5C 200.924,127.485 201.59,125.152 201.5,122.5C 202.45,116.416 203.784,110.416 205.5,104.5C 207.163,102.562 207.829,100.228 207.5,97.5C 207.328,96.5084 207.662,95.8417 208.5,95.5C 211.152,95.5905 213.485,94.9238 215.5,93.5C 218.428,93.4349 221.095,92.7682 223.5,91.5C 231.521,90.0842 239.521,90.2508 247.5,92C 252.324,93.2232 255.658,96.0565 257.5,100.5 Z"/></g>
<g><path style="opacity:0.447" fill="#9e9e9e" d="M 310.5,82.5 C 310.249,86.2488 309.583,89.9155 308.5,93.5C 302.879,92.6463 297.212,92.313 291.5,92.5C 296.567,91.1757 301.734,91.1757 307,92.5C 307.878,88.9477 309.044,85.6144 310.5,82.5 Z"/></g>
<g><path style="opacity:0.05" fill="#e1e1e1" d="M 356.5,90.5 C 360.298,91.4834 364.298,91.8168 368.5,91.5C 368.784,93.4147 368.451,95.0813 367.5,96.5C 367.5,95.1667 367.5,93.8333 367.5,92.5C 363.445,92.8242 359.445,92.4909 355.5,91.5C 355.624,90.8933 355.957,90.56 356.5,90.5 Z"/></g>
<g><path style="opacity:1" fill="#171717" d="M 438.5,91.5 C 438.5,92.5 438.5,93.5 438.5,94.5C 437.546,97.7062 436.213,100.706 434.5,103.5C 433.292,104.234 431.959,104.567 430.5,104.5C 426.452,104.395 422.452,104.728 418.5,105.5C 416.787,106.635 416.12,108.302 416.5,110.5C 414.949,120.37 412.616,130.037 409.5,139.5C 408.076,141.515 407.41,143.848 407.5,146.5C 407.599,149.673 406.932,152.673 405.5,155.5C 400.22,156.618 394.887,156.784 389.5,156C 388.978,155.439 388.645,154.772 388.5,154C 390.093,147.793 391.76,141.626 393.5,135.5C 395.163,133.562 395.829,131.228 395.5,128.5C 397.526,117.11 400.526,106.11 404.5,95.5C 408.162,95.2766 411.495,94.2766 414.5,92.5C 422.551,90.5603 430.551,90.227 438.5,91.5 Z"/></g>
<g><path style="opacity:1" fill="#151515" d="M 477.5,126.5 C 472.269,126.444 467.269,127.111 462.5,128.5C 457.694,129.593 452.694,130.259 447.5,130.5C 446.5,130.5 445.5,130.5 444.5,130.5C 444.216,132.415 444.549,134.081 445.5,135.5C 445.5,135.833 445.5,136.167 445.5,136.5C 445.427,138.027 446.094,139.027 447.5,139.5C 448.872,140.512 450.205,141.512 451.5,142.5C 453.634,144.033 456.134,144.7 459,144.5C 461.033,144.494 462.866,144.161 464.5,143.5C 465.167,143.5 465.833,143.5 466.5,143.5C 469.228,143.829 471.562,143.163 473.5,141.5C 473.833,141.5 474.167,141.5 474.5,141.5C 475.833,141.5 477.167,141.5 478.5,141.5C 479.236,144.695 479.903,148.029 480.5,151.5C 480.291,152.086 479.957,152.586 479.5,153C 469.395,156.722 459.061,157.889 448.5,156.5C 446.485,155.076 444.152,154.41 441.5,154.5C 432.527,150.74 428.193,143.907 428.5,134C 428.421,130.549 429.087,127.382 430.5,124.5C 431.924,122.485 432.59,120.152 432.5,117.5C 433.828,112.835 436.161,108.835 439.5,105.5C 442.167,103.5 444.5,101.167 446.5,98.5C 454.559,91.8645 463.892,89.3645 474.5,91C 485.294,92.9641 490.96,99.4641 491.5,110.5C 490.861,113.475 490.361,116.475 490,119.5C 489.767,121.78 488.934,123.78 487.5,125.5C 484.242,126.417 480.909,126.751 477.5,126.5 Z M 473.5,106.5 C 473.993,108.806 474.326,111.139 474.5,113.5C 473.596,114.209 473.263,115.209 473.5,116.5C 471.265,116.205 469.265,116.539 467.5,117.5C 465.265,117.205 463.265,117.539 461.5,118.5C 457.625,118.356 453.792,118.69 450,119.5C 448.624,119.316 447.791,118.649 447.5,117.5C 450.878,109.455 456.878,104.788 465.5,103.5C 468.624,103.4 471.29,104.4 473.5,106.5 Z"/></g>
<g><path style="opacity:0.882" fill="#636363" d="M 146.5,91.5 C 143.093,93.0743 139.427,94.0743 135.5,94.5C 138.799,92.5165 142.466,91.5165 146.5,91.5 Z"/></g>
<g><path style="opacity:0.765" fill="#8a8a8a" d="M 223.5,91.5 C 221.095,92.7682 218.428,93.4349 215.5,93.5C 217.838,91.9605 220.505,91.2938 223.5,91.5 Z"/></g>
<g><path style="opacity:0.4" fill="#acacac" d="M 438.5,91.5 C 440.557,91.9567 440.557,92.9567 438.5,94.5C 438.5,93.5 438.5,92.5 438.5,91.5 Z"/></g>
<g><path style="opacity:1" fill="#181818" d="M 183.5,92.5 C 188.833,92.5 194.167,92.5 199.5,92.5C 199.5,93.8333 199.5,95.1667 199.5,96.5C 195.142,116.267 190.308,135.934 185,155.5C 179.584,156.639 174.084,156.806 168.5,156C 168.243,152.152 168.91,148.318 170.5,144.5C 172.163,142.562 172.829,140.228 172.5,137.5C 174.04,135.162 174.706,132.495 174.5,129.5C 177.119,117.07 180.119,104.736 183.5,92.5 Z"/></g>
<g><path style="opacity:0.871" fill="#6c6c6c" d="M 291.5,92.5 C 289.485,93.9238 287.152,94.5905 284.5,94.5C 286.515,93.0762 288.848,92.4095 291.5,92.5 Z"/></g>
<g><path style="opacity:1" fill="#171717" d="M 384.5,139.5 C 383.076,141.515 382.41,143.848 382.5,146.5C 382.794,150.115 381.794,153.282 379.5,156C 374.5,156.667 369.5,156.667 364.5,156C 363.941,155.275 363.608,154.442 363.5,153.5C 364.849,148.462 366.182,143.462 367.5,138.5C 369.163,136.562 369.829,134.228 369.5,131.5C 370.924,129.485 371.59,127.152 371.5,124.5C 372.768,122.095 373.435,119.428 373.5,116.5C 373.5,115.833 373.5,115.167 373.5,114.5C 375.68,111.619 376.68,108.286 376.5,104.5C 378.04,102.162 378.706,99.4951 378.5,96.5C 378.286,94.8561 378.62,93.3561 379.5,92C 384.833,91.3333 390.167,91.3333 395.5,92C 396.022,92.5613 396.355,93.228 396.5,94C 392.588,109.228 388.588,124.395 384.5,139.5 Z"/></g>
<g><path style="opacity:0.757" fill="#818181" d="M 414.5,92.5 C 411.495,94.2766 408.162,95.2766 404.5,95.5C 407.452,93.5902 410.786,92.5902 414.5,92.5 Z"/></g>
<g><path style="opacity:0.863" fill="#727272" d="M 92.5,93.5 C 90.4855,94.9238 88.1522,95.5905 85.5,95.5C 87.5145,94.0762 89.8478,93.4095 92.5,93.5 Z"/></g>
<g><path style="opacity:0.894" fill="#666666" d="M 215.5,93.5 C 213.485,94.9238 211.152,95.5905 208.5,95.5C 210.515,94.0762 212.848,93.4095 215.5,93.5 Z"/></g>
<g><path style="opacity:0.592" fill="#9c9c9c" d="M 128.5,95.5 C 129.391,96.1098 130.391,96.4431 131.5,96.5C 130.053,97.8852 129.053,97.5518 128.5,95.5 Z"/></g>
<g><path style="opacity:0.91" fill="#6d6d6d" d="M 378.5,96.5 C 378.706,99.4951 378.04,102.162 376.5,104.5C 376.565,101.572 377.232,98.9052 378.5,96.5 Z"/></g>
<g><path style="opacity:0.322" fill="#ffb0ab" d="M 27.5,99.5 C 27.573,101.027 26.9063,102.027 25.5,102.5C 25.427,100.973 26.0937,99.9731 27.5,99.5 Z"/></g>
<g><path style="opacity:0.835" fill="#8b8b8b" d="M 207.5,97.5 C 207.829,100.228 207.163,102.562 205.5,104.5C 205.721,101.933 206.388,99.5994 207.5,97.5 Z"/></g>
<g><path style="opacity:0.651" fill="#909090" d="M 446.5,98.5 C 444.5,101.167 442.167,103.5 439.5,105.5C 440.833,102.167 443.167,99.8333 446.5,98.5 Z"/></g>
<g><path style="opacity:0.58" fill="#8a8a8a" d="M 330.5,97.5 C 330.326,99.861 329.993,102.194 329.5,104.5C 328.355,102.047 328.688,99.7134 330.5,97.5 Z"/></g>
<g><path style="opacity:0.843" fill="#7e7e7e" d="M 257.5,100.5 C 259.913,104.797 259.913,109.131 257.5,113.5C 257.5,109.167 257.5,104.833 257.5,100.5 Z"/></g>
<g><path style="opacity:0.008" fill="#dbdbdb" d="M 434.5,103.5 C 434.38,104.586 433.713,105.253 432.5,105.5C 431.584,105.457 430.917,105.124 430.5,104.5C 431.959,104.567 433.292,104.234 434.5,103.5 Z"/></g>
<g><path style="opacity:0.392" fill="#a9a9a9" d="M 149.5,104.5 C 151.027,104.427 152.027,105.094 152.5,106.5C 150.973,106.573 149.973,105.906 149.5,104.5 Z"/></g>
<g><path style="opacity:0.502" fill="#ff9088" d="M 24.5,104.5 C 24.573,106.027 23.9063,107.027 22.5,107.5C 22.427,105.973 23.0937,104.973 24.5,104.5 Z"/></g>
<g><path style="opacity:0.102" fill="#d9d9d9" d="M 301.5,104.5 C 302.5,104.5 303.5,104.5 304.5,104.5C 304.768,106.099 304.434,107.432 303.5,108.5C 303.473,106.801 302.806,105.467 301.5,104.5 Z"/></g>
<g><path style="opacity:0.427" fill="#a3a3a3" d="M 269.5,105.5 C 269.573,107.027 268.906,108.027 267.5,108.5C 267.427,106.973 268.094,105.973 269.5,105.5 Z"/></g>
<g><path style="opacity:0.588" fill="#989898" d="M 418.5,105.5 C 418.204,107.403 417.537,109.07 416.5,110.5C 416.12,108.302 416.787,106.635 418.5,105.5 Z"/></g>
<g><path style="opacity:0.745" fill="#646464" d="M 473.5,106.5 C 475.534,108.655 475.867,110.988 474.5,113.5C 474.326,111.139 473.993,108.806 473.5,106.5 Z"/></g>
<g><path style="opacity:0.373" fill="#a9a9a9" d="M 267.5,108.5 C 267.573,110.027 266.906,111.027 265.5,111.5C 265.427,109.973 266.094,108.973 267.5,108.5 Z"/></g>
<g><path style="opacity:0.859" fill="#ff9288" d="M 54.5,110.5 C 54.2624,112.404 53.2624,113.738 51.5,114.5C 51.7376,112.596 52.7376,111.262 54.5,110.5 Z"/></g>
<g><path style="opacity:0.706" fill="#858585" d="M 376.5,104.5 C 376.68,108.286 375.68,111.619 373.5,114.5C 374.13,110.952 375.13,107.619 376.5,104.5 Z"/></g>
<g><path style="opacity:0.824" fill="#ff8376" d="M 47.5,104.5 C 47.4088,106.698 48.0755,107.031 49.5,105.5C 48.8305,108.849 47.1639,111.516 44.5,113.5C 43.8333,113.5 43.5,113.167 43.5,112.5C 44.6553,109.672 45.9886,107.005 47.5,104.5 Z"/></g>
<g><path style="opacity:0.871" fill="#7f7f7f" d="M 335.5,108.5 C 335.829,111.228 335.163,113.562 333.5,115.5C 333.721,112.933 334.388,110.599 335.5,108.5 Z"/></g>
<g><path style="opacity:0.286" fill="#ffb3ad" d="M 19.5,112.5 C 19.573,114.027 18.9063,115.027 17.5,115.5C 17.427,113.973 18.0937,112.973 19.5,112.5 Z"/></g>
<g><path style="opacity:0.341" fill="#ffccca" d="M 43.5,112.5 C 43.5,113.167 43.8333,113.5 44.5,113.5C 43.6782,115.728 42.3448,116.395 40.5,115.5C 41.1882,114.145 42.1882,113.145 43.5,112.5 Z"/></g>
<g><path style="opacity:0.812" fill="#ff9b91" d="M 51.5,114.5 C 51.2624,116.404 50.2624,117.738 48.5,118.5C 48.7376,116.596 49.7376,115.262 51.5,114.5 Z"/></g>
<g><path style="opacity:0.439" fill="#bababa" d="M 474.5,113.5 C 474.5,114.833 474.5,116.167 474.5,117.5C 472.167,117.5 469.833,117.5 467.5,117.5C 469.265,116.539 471.265,116.205 473.5,116.5C 473.263,115.209 473.596,114.209 474.5,113.5 Z"/></g>
<g><path style="opacity:0.831" fill="#7e7e7e" d="M 153.5,114.5 C 153.59,117.152 152.924,119.485 151.5,121.5C 151.171,118.772 151.837,116.438 153.5,114.5 Z"/></g>
<g><path style="opacity:0.576" fill="#8b8b8b" d="M 117.5,112.5 C 117.59,115.152 116.924,117.485 115.5,119.5C 115.41,116.848 116.076,114.515 117.5,112.5 Z"/></g>
<g><path style="opacity:0.914" fill="#727272" d="M 240.5,114.5 C 240.706,117.495 240.04,120.162 238.5,122.5C 238.565,119.572 239.232,116.905 240.5,114.5 Z"/></g>
<g><path style="opacity:0.776" fill="#878787" d="M 373.5,116.5 C 373.435,119.428 372.768,122.095 371.5,124.5C 371.294,121.505 371.96,118.838 373.5,116.5 Z"/></g>
<g><path style="opacity:0.902" fill="#656565" d="M 447.5,117.5 C 447.791,118.649 448.624,119.316 450,119.5C 453.792,118.69 457.625,118.356 461.5,118.5C 456.731,119.889 451.731,120.556 446.5,120.5C 446.263,119.209 446.596,118.209 447.5,117.5 Z"/></g>
<g><path style="opacity:0.475" fill="#ffa19c" d="M 48.5,118.5 C 48.573,120.027 47.9063,121.027 46.5,121.5C 46.427,119.973 47.0937,118.973 48.5,118.5 Z"/></g>
<g><path style="opacity:0.882" fill="#6e6e6e" d="M 432.5,117.5 C 432.59,120.152 431.924,122.485 430.5,124.5C 430.41,121.848 431.076,119.515 432.5,117.5 Z"/></g>
<g><path style="opacity:0.557" fill="#9e9e9e" d="M 96.5,118.5 C 96.405,120.786 95.7384,122.786 94.5,124.5C 94.2594,122.102 94.9261,120.102 96.5,118.5 Z"/></g>
<g><path style="opacity:0.902" fill="#676767" d="M 262.5,118.5 C 262.59,121.152 261.924,123.485 260.5,125.5C 260.41,122.848 261.076,120.515 262.5,118.5 Z"/></g>
<g><path style="opacity:0.835" fill="#818181" d="M 301.5,117.5 C 301.706,120.495 301.04,123.162 299.5,125.5C 299.565,122.572 300.232,119.905 301.5,117.5 Z"/></g>
<g><path style="opacity:0.925" fill="#808080" d="M 79.5,118.5 C 79.2809,122.8 78.2809,126.8 76.5,130.5C 76.7191,126.2 77.7191,122.2 79.5,118.5 Z"/></g>
<g><path style="opacity:0.525" fill="#a2a2a2" d="M 132.5,120.5 C 132.405,122.786 131.738,124.786 130.5,126.5C 130.259,124.102 130.926,122.102 132.5,120.5 Z"/></g>
<g><path style="opacity:0.686" fill="#7a7a7a" d="M 333.5,116.5 C 333.706,119.495 333.04,122.162 331.5,124.5C 331.565,121.572 332.232,118.905 333.5,116.5 Z"/></g>
<g><path style="opacity:0.047" fill="#c0c0c0" d="M 477.5,126.5 C 472.75,128.031 467.75,128.698 462.5,128.5C 467.269,127.111 472.269,126.444 477.5,126.5 Z"/></g>
<g><path style="opacity:0.008" fill="#c2c2c2" d="M 94.5,125.5 C 94.5905,128.152 93.9238,130.485 92.5,132.5C 92.4095,129.848 93.0762,127.515 94.5,125.5 Z"/></g>
<g><path style="opacity:0.639" fill="#7f7f7f" d="M 201.5,122.5 C 201.59,125.152 200.924,127.485 199.5,129.5C 199.41,126.848 200.076,124.515 201.5,122.5 Z"/></g>
<g><path style="opacity:0.498" fill="#868686" d="M 277.5,123.5 C 277.058,127.154 276.724,130.821 276.5,134.5C 275.226,130.735 275.559,127.069 277.5,123.5 Z"/></g>
<g><path style="opacity:0.557" fill="#8e8e8e" d="M 371.5,124.5 C 371.59,127.152 370.924,129.485 369.5,131.5C 369.41,128.848 370.076,126.515 371.5,124.5 Z"/></g>
<g><path style="opacity:0.273" fill="#b8b8b8" d="M 447.5,130.5 C 446.032,131.779 445.365,133.446 445.5,135.5C 444.549,134.081 444.216,132.415 444.5,130.5C 445.5,130.5 446.5,130.5 447.5,130.5 Z"/></g>
<g><path style="opacity:0.945" fill="#ff7365" d="M 42.5,129.5 C 42.5905,132.152 41.9238,134.485 40.5,136.5C 40.4095,133.848 41.0762,131.515 42.5,129.5 Z"/></g>
<g><path style="opacity:0.761" fill="#8d8d8d" d="M 149.5,129.5 C 149.435,132.428 148.768,135.095 147.5,137.5C 147.294,134.505 147.96,131.838 149.5,129.5 Z"/></g>
<g><path style="opacity:0.659" fill="#818181" d="M 299.5,125.5 C 299.706,128.495 299.04,131.162 297.5,133.5C 297.565,130.572 298.232,127.905 299.5,125.5 Z"/></g>
<g><path style="opacity:0.886" fill="#7a7a7a" d="M 395.5,128.5 C 395.829,131.228 395.163,133.562 393.5,135.5C 393.721,132.933 394.388,130.599 395.5,128.5 Z"/></g>
<g><path style="opacity:0.89" fill="#737373" d="M 174.5,129.5 C 174.706,132.495 174.04,135.162 172.5,137.5C 172.565,134.572 173.232,131.905 174.5,129.5 Z"/></g>
<g><path style="opacity:0.867" fill="#838383" d="M 199.5,129.5 C 199.706,132.495 199.04,135.162 197.5,137.5C 197.294,134.505 197.96,131.838 199.5,129.5 Z"/></g>
<g><path style="opacity:0.808" fill="#919191" d="M 369.5,131.5 C 369.829,134.228 369.163,136.562 367.5,138.5C 367.721,135.933 368.388,133.599 369.5,131.5 Z"/></g>
<g><path style="opacity:0.773" fill="#858585" d="M 235.5,134.5 C 235.435,137.428 234.768,140.095 233.5,142.5C 233.294,139.505 233.96,136.838 235.5,134.5 Z"/></g>
<g><path style="opacity:0.553" fill="#9d9d9d" d="M 345.5,135.5 C 345.405,137.786 344.738,139.786 343.5,141.5C 343.259,139.102 343.926,137.102 345.5,135.5 Z"/></g>
<g><path style="opacity:0.169" fill="#c7c7c7" d="M 445.5,136.5 C 446.906,136.973 447.573,137.973 447.5,139.5C 446.094,139.027 445.427,138.027 445.5,136.5 Z"/></g>
<g><path style="opacity:0.78" fill="#848484" d="M 328.5,136.5 C 328.435,139.428 327.768,142.095 326.5,144.5C 326.294,141.505 326.96,138.838 328.5,136.5 Z"/></g>
<g><path style="opacity:0.612" fill="#8d8d8d" d="M 478.5,141.5 C 477.167,141.5 475.833,141.5 474.5,141.5C 475.531,140.751 476.698,140.085 478,139.5C 478.464,140.094 478.631,140.761 478.5,141.5 Z"/></g>
<g><path style="opacity:0.773" fill="#898989" d="M 74.5,138.5 C 74.4349,141.428 73.7682,144.095 72.5,146.5C 72.2938,143.505 72.9605,140.838 74.5,138.5 Z"/></g>
<g><path style="opacity:0.929" fill="#6c6c6c" d="M 147.5,137.5 C 147.706,140.495 147.04,143.162 145.5,145.5C 145.565,142.572 146.232,139.905 147.5,137.5 Z"/></g>
<g><path style="opacity:0.914" fill="#797979" d="M 172.5,137.5 C 172.829,140.228 172.163,142.562 170.5,144.5C 170.721,141.933 171.388,139.599 172.5,137.5 Z"/></g>
<g><path style="opacity:0.616" fill="#8f8f8f" d="M 278.5,140.5 C 280.368,141.263 282.035,142.263 283.5,143.5C 280.966,143.741 279.3,142.741 278.5,140.5 Z"/></g>
<g><path style="opacity:0.004" fill="#c8c8c8" d="M 384.5,139.5 C 384.59,142.152 383.924,144.485 382.5,146.5C 382.41,143.848 383.076,141.515 384.5,139.5 Z"/></g>
<g><path style="opacity:0.016" fill="#c1c1c1" d="M 409.5,139.5 C 409.59,142.152 408.924,144.485 407.5,146.5C 407.41,143.848 408.076,141.515 409.5,139.5 Z"/></g>
<g><path style="opacity:0.737" fill="#979797" d="M 473.5,141.5 C 471.562,143.163 469.228,143.829 466.5,143.5C 468.599,142.388 470.933,141.721 473.5,141.5 Z"/></g>
<g><path style="opacity:0.835" fill="#747474" d="M 110.5,140.5 C 110.59,143.152 109.924,145.485 108.5,147.5C 108.41,144.848 109.076,142.515 110.5,140.5 Z"/></g>
<g><path style="opacity:0.933" fill="#747474" d="M 295.5,141.5 C 295.586,142.496 295.252,143.329 294.5,144C 290.642,144.81 286.976,144.643 283.5,143.5C 287.813,144.01 291.813,143.343 295.5,141.5 Z"/></g>
<g><path style="opacity:0.239" fill="#a3a3a3" d="M 451.5,142.5 C 455.785,143.295 460.119,143.628 464.5,143.5C 462.866,144.161 461.033,144.494 459,144.5C 456.134,144.7 453.634,144.033 451.5,142.5 Z"/></g>
<g><path style="opacity:0.678" fill="#7d7d7d" d="M 197.5,137.5 C 197.706,140.495 197.04,143.162 195.5,145.5C 195.565,142.572 196.232,139.905 197.5,137.5 Z"/></g>
<g><path style="opacity:0.573" fill="#949494" d="M 233.5,142.5 C 233.59,145.152 232.924,147.485 231.5,149.5C 231.41,146.848 232.076,144.515 233.5,142.5 Z"/></g>
<g><path style="opacity:0.369" fill="#ffa9a3" d="M 37.5,147.5 C 38.9063,147.973 39.573,148.973 39.5,150.5C 38.0937,150.027 37.427,149.027 37.5,147.5 Z"/></g>
<g><path style="opacity:0.557" fill="#929292" d="M 72.5,146.5 C 72.5905,149.152 71.9238,151.485 70.5,153.5C 70.4095,150.848 71.0762,148.515 72.5,146.5 Z"/></g>
<g><path style="opacity:0.135" fill="#ffc4c3" d="M 41.5,153.5 C 41.8333,153.5 42.1667,153.5 42.5,153.5C 44.0698,154.875 44.9031,156.541 45,158.5C 43.3308,157.154 42.1642,155.487 41.5,153.5 Z"/></g>
<g><path style="opacity:0.889" fill="#747474" d="M 194.5,149.5 C 194.5,151.167 194.5,152.833 194.5,154.5C 199.5,154.5 204.5,154.5 209.5,154.5C 209.263,153.209 209.596,152.209 210.5,151.5C 210.714,153.144 210.38,154.644 209.5,156C 204.167,156.667 198.833,156.667 193.5,156C 193.043,155.586 192.709,155.086 192.5,154.5C 193.028,152.664 193.694,150.997 194.5,149.5 Z"/></g>
<g><path style="opacity:0.885" fill="#676767" d="M 326.5,144.5 C 326.6,147.667 325.933,150.667 324.5,153.5C 329.886,154.782 335.219,154.782 340.5,153.5C 340.586,154.496 340.252,155.329 339.5,156C 334.5,156.667 329.5,156.667 324.5,156C 323.793,151.947 324.459,148.114 326.5,144.5 Z"/></g>
<g><path style="opacity:0.015" fill="#e9e9e9" d="M 107.5,151.5 C 107.5,152.833 107.5,154.167 107.5,155.5C 112.5,155.5 117.5,155.5 122.5,155.5C 117.36,156.488 112.026,156.821 106.5,156.5C 106.216,154.585 106.549,152.919 107.5,151.5 Z"/></g>
<g><path style="opacity:0.729" fill="#717171" d="M 441.5,154.5 C 444.152,154.41 446.485,155.076 448.5,156.5C 445.772,156.829 443.438,156.163 441.5,154.5 Z"/></g>
<g><path style="opacity:0.384" fill="#ff9794" d="M 21.5,166.5 C 22.9473,165.115 23.9473,165.448 24.5,167.5C 23.609,166.89 22.609,166.557 21.5,166.5 Z"/></g>
<g><path style="opacity:0.122" fill="#ffc5c3" d="M 70.5,165.5 C 72.3797,165.229 73.713,165.896 74.5,167.5C 72.847,167.34 71.5137,166.674 70.5,165.5 Z"/></g>
<g><path style="opacity:1" fill="#ff3622" d="M 264.5,164.5 C 282.073,164.273 287.906,172.606 282,189.5C 278.041,208.063 267.208,213.896 249.5,207C 246.259,203.897 244.593,200.064 244.5,195.5C 244.56,184.805 248.227,175.638 255.5,168C 258.459,166.396 261.459,165.229 264.5,164.5 Z M 263.5,172.5 C 266.807,172.063 269.807,172.73 272.5,174.5C 273.9,181.27 273.4,187.937 271,194.5C 268.374,201.183 263.541,203.35 256.5,201C 253.66,192.571 254.493,184.404 259,176.5C 260.397,174.93 261.897,173.596 263.5,172.5 Z"/></g>
<g><path style="opacity:1" fill="#ff3824" d="M 304.5,164.5 C 308.898,164.795 313.231,165.462 317.5,166.5C 317.838,168.655 317.838,170.989 317.5,173.5C 312.501,172.916 307.501,172.749 302.5,173C 297.632,175.477 297.299,178.477 301.5,182C 315.02,184.738 318.687,192.238 312.5,204.5C 310.287,206.774 307.621,208.274 304.5,209C 297.703,209.936 291.036,209.436 284.5,207.5C 284.167,207.167 283.833,206.833 283.5,206.5C 283.854,203.526 285.354,201.526 288,200.5C 293.139,201.536 298.305,201.703 303.5,201C 305.396,199.192 305.896,197.025 305,194.5C 301.477,192.099 297.644,190.266 293.5,189C 287.12,182.304 287.12,175.47 293.5,168.5C 296.999,166.434 300.665,165.1 304.5,164.5 Z"/></g>
<g><path style="opacity:1" fill="#ff3924" d="M 337.5,164.5 C 342.617,164.764 347.617,165.597 352.5,167C 351.833,169 351.167,171 350.5,173C 345.515,172.781 340.515,172.781 335.5,173C 332.542,175.128 331.876,177.794 333.5,181C 339.041,182.685 343.874,185.518 348,189.5C 351.117,199.099 347.95,205.599 338.5,209C 332.083,209.87 325.749,209.536 319.5,208C 317.364,205.902 317.364,203.568 319.5,201C 325.13,201.456 330.796,201.456 336.5,201C 339.929,198.888 340.262,196.388 337.5,193.5C 332.355,191.849 327.855,189.182 324,185.5C 320.956,173.579 325.456,166.579 337.5,164.5 Z"/></g>
<g><path style="opacity:1" fill="#ff341f" d="M 238.5,191.5 C 233.056,190.892 228.056,191.558 223.5,193.5C 222.99,198.211 222.156,202.878 221,207.5C 217.875,208.787 214.709,208.787 211.5,207.5C 214.756,193.552 217.756,179.552 220.5,165.5C 228.833,165.5 237.167,165.5 245.5,165.5C 245.425,168.206 245.092,170.873 244.5,173.5C 239.156,173.334 233.823,173.501 228.5,174C 227.261,177.364 226.594,180.864 226.5,184.5C 231.214,184.173 235.88,184.507 240.5,185.5C 239.828,187.53 239.162,189.53 238.5,191.5 Z"/></g>
<g><path style="opacity:0.502" fill="#ffb5b2" d="M 27.5,172.5 C 29.4044,172.738 30.7377,173.738 31.5,175.5C 29.5956,175.262 28.2623,174.262 27.5,172.5 Z"/></g>
<g><path style="opacity:0.667" fill="#ff9f99" d="M 31.5,175.5 C 33.0269,175.427 34.0269,176.094 34.5,177.5C 32.9731,177.573 31.9731,176.906 31.5,175.5 Z"/></g>
<g><path style="opacity:0.741" fill="#e7e7e7" d="M 403.5,182.5 C 431.502,182.333 459.502,182.5 487.5,183C 490.191,185.492 489.691,187.325 486,188.5C 446.872,188.626 407.705,188.293 368.5,187.5C 368.5,186.167 368.5,184.833 368.5,183.5C 380.345,183.828 392.012,183.495 403.5,182.5 Z"/></g>
<g><path style="opacity:0.835" fill="#e8e8e8" d="M 71.5,183.5 C 110.168,183.333 148.835,183.5 187.5,184C 188.747,185.494 188.747,186.994 187.5,188.5C 147.861,189.798 108.194,189.798 68.5,188.5C 68.5,187.167 68.5,185.833 68.5,184.5C 69.791,184.737 70.791,184.404 71.5,183.5 Z"/></g>
<g><path style="opacity:0.107" fill="#ffdcdc" d="M 238.5,191.5 C 233.602,192.213 228.602,192.879 223.5,193.5C 228.056,191.558 233.056,190.892 238.5,191.5 Z"/></g>
</svg>
