<?xml version="1.0" standalone="no"?>
<!DOCTYPE svg PUBLIC "-//W3C//DTD SVG 20010904//EN"
 "http://www.w3.org/TR/2001/REC-SVG-20010904/DTD/svg10.dtd">
<svg version="1.0" xmlns="http://www.w3.org/2000/svg"
 width="494.000000pt" height="217.000000pt" viewBox="0 0 494.000000 217.000000"
 preserveAspectRatio="xMidYMid meet">

<g transform="translate(0.000000,217.000000) scale(0.100000,-0.100000)"
fill="#000000" stroke="none">
<path d="M594 2145 c-48 -68 -77 -147 -89 -240 l-6 -50 41 45 c54 61 82 136
78 214 l-3 61 -21 -30z"/>
<path d="M472 1810 c-51 -80 -50 -121 3 -320 42 -156 36 -317 -16 -425 -15
-30 -16 -35 -4 -20 59 72 94 197 101 365 6 112 4 136 -19 230 -15 58 -30 128
-35 155 l-8 50 -22 -35z"/>
<path d="M269 1608 c50 -84 70 -138 77 -207 9 -81 -13 -147 -90 -275 -138
-226 -214 -392 -242 -524 -13 -63 -15 -85 -6 -94 17 -17 134 -22 189 -8 37 9
48 9 52 -1 7 -21 74 -90 102 -105 24 -12 43 -11 171 11 177 31 243 47 243 60
0 6 -32 26 -72 45 -90 44 -109 61 -121 113 -14 56 -3 117 52 285 55 168 70
259 63 373 -5 78 -54 316 -63 307 -2 -3 4 -42 12 -89 11 -56 15 -115 12 -176
-4 -79 -10 -102 -40 -165 -20 -40 -59 -104 -88 -143 -83 -110 -105 -165 -105
-260 0 -67 5 -89 28 -135 l28 -55 -35 40 c-77 88 -124 228 -111 332 3 29 27
112 52 185 41 122 44 140 41 213 -2 66 -9 92 -35 145 -29 59 -128 188 -145
189 -4 1 10 -27 31 -61z"/>
<path d="M3621 1514 c-107 -29 -174 -102 -206 -224 -11 -43 -13 -45 -52 -48
l-41 -3 -15 -60 -15 -59 39 0 c22 0 39 -3 39 -6 0 -3 -27 -111 -60 -241 -33
-129 -60 -241 -60 -249 0 -12 15 -14 77 -12 l76 3 28 105 c15 58 44 171 65
253 l37 147 62 0 63 0 11 44 c19 75 18 76 -48 76 l-59 0 10 38 c24 86 62 122
131 122 33 0 35 2 50 56 9 32 14 61 11 65 -8 13 -82 10 -143 -7z"/>
<path d="M3121 1381 l-34 -139 -101 -4 c-88 -3 -108 -7 -159 -32 -213 -108
-306 -459 -148 -563 48 -32 94 -43 184 -43 72 0 197 21 224 38 6 4 59 196 118
427 58 231 108 428 111 438 5 15 -3 17 -78 17 l-83 0 -34 -139z m-71 -271 c0
-6 -21 -93 -46 -195 l-46 -184 -43 -7 c-55 -8 -111 10 -132 42 -50 77 15 277
110 334 35 22 157 29 157 10z"/>
<path d="M1933 1490 c-38 -23 -53 -48 -53 -89 0 -57 76 -80 134 -42 59 39 72
97 30 130 -33 26 -70 27 -111 1z"/>
<path d="M3884 1481 c-43 -26 -62 -82 -40 -115 45 -70 176 -18 176 69 0 62
-71 86 -136 46z"/>
<path d="M990 1243 c-14 -2 -49 -11 -77 -19 -48 -14 -53 -19 -62 -52 -47 -179
-141 -551 -141 -556 0 -3 36 -6 79 -6 l79 0 10 33 c6 17 34 126 63 242 28 116
58 216 64 223 8 8 37 14 73 15 69 2 102 -18 102 -62 0 -14 -25 -122 -54 -238
l-54 -213 82 0 81 0 48 193 c67 268 76 294 95 302 73 31 147 21 163 -22 7 -19
-3 -71 -46 -239 -30 -118 -55 -218 -55 -224 0 -6 33 -10 80 -10 l79 0 9 33 c5
17 33 129 62 248 50 200 53 220 42 257 -8 27 -25 51 -49 69 -34 26 -42 28
-137 28 -85 0 -110 -4 -161 -25 l-60 -26 -45 25 c-39 22 -59 26 -145 27 -55 1
-111 0 -125 -3z"/>
<path d="M2183 1235 c-34 -7 -70 -18 -80 -23 -14 -8 -34 -75 -87 -289 -38
-153 -71 -286 -74 -295 -4 -16 4 -18 75 -18 l80 0 21 78 c11 42 40 154 63 247
23 94 44 172 46 174 9 12 103 18 136 10 65 -17 65 -34 7 -264 -28 -110 -53
-210 -56 -223 -6 -23 -6 -23 77 -20 l83 3 58 230 c69 270 70 301 15 351 -19
18 -52 37 -74 43 -52 15 -214 12 -290 -4z"/>
<path d="M4185 1244 c-11 -3 -47 -11 -80 -20 l-60 -15 -73 -287 c-39 -158 -72
-293 -72 -300 0 -8 23 -12 78 -12 l78 0 59 233 c32 127 62 242 66 255 8 20 15
22 84 22 l75 0 20 40 c11 23 25 52 30 65 l10 25 -98 -1 c-53 -1 -106 -3 -117
-5z"/>
<path d="M4580 1235 c-154 -48 -281 -234 -279 -409 1 -77 16 -118 58 -161 50
-52 113 -69 235 -62 55 3 125 12 154 22 l53 16 -7 57 c-3 31 -7 58 -8 59 -1 1
-24 -4 -50 -12 -71 -22 -165 -27 -206 -13 -38 14 -80 68 -80 104 0 26 -16 22
252 56 l177 22 11 30 c31 89 22 185 -22 242 -48 60 -179 82 -288 49z m153
-127 c13 -15 17 -34 15 -67 l-3 -46 -134 -17 c-74 -10 -137 -16 -139 -13 -9 9
39 92 70 122 57 55 153 65 191 21z"/>
<path d="M1846 1232 c-5 -8 -156 -606 -156 -617 0 -3 36 -5 80 -5 44 0 80 1
80 3 0 2 36 144 79 315 l79 312 -78 0 c-43 0 -81 -4 -84 -8z"/>
<path d="M3800 1236 c0 -2 -36 -144 -79 -315 l-79 -311 82 0 82 0 78 308 c42
169 77 310 76 315 0 7 -160 10 -160 3z"/>
<path d="M2594 496 c-77 -34 -128 -141 -128 -274 -1 -81 0 -84 30 -111 61 -55
189 -49 252 12 44 42 73 125 79 224 7 95 -6 125 -62 149 -43 18 -130 18 -171
0z m140 -79 c15 -18 17 -32 12 -79 -16 -139 -53 -198 -125 -198 -60 0 -76 19
-75 87 2 113 43 203 99 216 32 7 69 -4 89 -26z"/>
<path d="M2995 499 c-59 -17 -95 -68 -95 -132 0 -48 25 -76 95 -107 67 -30 84
-54 65 -90 -6 -11 -22 -23 -36 -26 -21 -5 -104 -1 -146 9 -10 2 -34 -50 -26
-59 12 -11 118 -24 158 -18 98 14 140 55 140 138 0 56 -18 76 -94 110 -60 27
-78 49 -65 84 12 32 47 42 115 32 33 -4 60 -7 61 -6 2 2 6 16 9 33 5 28 3 31
-26 37 -44 8 -118 6 -155 -5z"/>
<path d="M3339 501 c-71 -23 -99 -61 -99 -134 0 -53 26 -81 103 -112 48 -20
52 -24 55 -57 4 -49 -21 -63 -102 -55 -34 3 -69 9 -78 12 -12 5 -18 -1 -23
-25 -4 -17 -5 -33 -3 -36 3 -2 29 -8 59 -14 138 -26 239 31 239 136 0 49 -30
81 -108 114 -63 27 -78 59 -43 93 18 18 31 22 78 20 32 -2 65 -5 74 -8 12 -4
18 3 23 26 3 18 4 34 2 36 -9 9 -152 12 -177 4z"/>
<path d="M2172 298 c-23 -112 -42 -206 -42 -210 0 -5 17 -8 38 -8 l39 0 18 85
18 85 72 0 c67 0 73 2 79 23 12 45 9 47 -64 47 -38 0 -70 2 -70 5 0 2 5 27 11
54 l10 50 82 3 81 3 7 33 6 32 -121 0 -121 0 -43 -202z"/>
</g>
</svg>
